<svg xmlns="http://www.w3.org/2000/svg">
  <defs>
       <path d="M21,18 L3,18 C1.346,18 0,16.654 0,15 L0,3 C0,1.346 1.346,0 3,0 L21,0 C22.654,0 24,1.346 24,3 L24,15 C24,16.654 22.654,18 21,18 L21,18 Z" id="path-1"/> <mask id="mask-2" maskContentUnits="userSpaceOnUse" maskUnits="objectBoundingBox" x="-1" y="-1" width="26" height="20"> <rect x="-1" y="-1" width="26" height="20" fill="white"/> <use xlink:href="#path-1" fill="black"/> </mask> 
 <path d="M22,17 L9.48,17 L5.781,21.625 C5.587,21.867 5.298,22 5,22 C4.889,22 4.777,21.982 4.669,21.944 C4.268,21.803 4,21.425 4,21 L4,17 L2,17 C0.897,17 0,16.103 0,15 L0,2 C0,0.897 0.897,0 2,0 L22,0 C23.103,0 24,0.897 24,2 L24,15 C24,16.103 23.103,17 22,17 L22,17 Z" id="path-1"/> <mask id="mask-2" maskContentUnits="userSpaceOnUse" maskUnits="objectBoundingBox" x="-1" y="-1" width="26" height="24"> <rect x="-1" y="-1" width="26" height="24" fill="white"/> <use xlink:href="#path-1" fill="black"/> </mask> 
 <path d="M22 17H9.48l-3.699 4.625A1 1 0 0 1 4 21v-4H2c-1.103 0-2-.897-2-2V2C0 .897.897 0 2 0h20c1.103 0 2 .897 2 2v13c0 1.103-.897 2-2 2z" id="sms-mobile-a"/> <mask id="sms-mobile-b" x="-1" y="-1" width="26" height="24"> <path fill="#fff" d="M-1-1h26v24H-1z"/> <use xlink:href="#sms-mobile-a"/> </mask> <path d="M33 34H9.35C4.193 34 0 29.649 0 24.297c0-3.922 2.257-7.414 5.69-8.921-.046-.441-.068-.87-.068-1.296C5.622 6.316 11.709 0 19.189 0c5.518 0 10.476 3.49 12.552 8.758h.097C38.544 8.757 44 14.418 44 21.378 44 27.651 40.221 34 33 34z" id="upload-a"/> <mask id="upload-b" x="0" y="0" width="44" height="34" fill="#fff"> <use xlink:href="#upload-a"/> </mask> 
 <path d="M33,34 L9.34908333,34 C4.19375,34 0,29.6488236 0,24.2974527 C0,20.375066 2.25683333,16.8833579 5.68975,15.3759827 C5.64391667,14.9349149 5.62191667,14.5061252 5.62191667,14.0801689 C5.62191667,6.31567544 11.7085833,0 19.1895,0 C24.7069167,0 29.6651667,3.48981916 31.7405,8.75807661 C31.7735,8.75713214 31.8055833,8.75713214 31.8376667,8.75713214 C38.544,8.75713214 44,14.4192339 44,21.3790383 C44,27.6512681 40.2215,34 33,34 L33,34 Z" id="path-1"/> <mask id="mask-2" maskContentUnits="userSpaceOnUse" maskUnits="objectBoundingBox" x="0" y="0" width="44" height="34" fill="white"> <use xlink:href="#path-1"/> </mask> 
  </defs>
    <symbol id="camera" viewBox="0 0 36 44">
       <!-- Generator: sketchtool 41 (35326) - http://www.bohemiancoding.com/sketch --> <title>F31B205A-9082-4A5A-8BE4-AC03C999524C</title> <desc>Created with sketchtool.</desc>  <g id="Page-1" stroke="none" stroke-width="1" fill="none" fill-rule="evenodd"> <g id="signature" transform="translate(-154.000000, -442.000000)"> <g id="Group-2-Copy-2" transform="translate(100.000000, 111.000000)"> <g id="Group-17" transform="translate(30.000000, 80.000000)"> <g id="Group-10" transform="translate(0.000000, 228.000000)"> <g id="camera" transform="translate(24.000000, 23.000000)"> <path d="M30.7959,30.6406 C34.0099,27.3876 35.9999,22.9226 35.9999,17.9996 C35.9999,8.0746 27.9249,-0.0004 17.9999,-0.0004 C8.0749,-0.0004 -0.0001,8.0746 -0.0001,17.9996 C-0.0001,22.9246 1.9909,27.3896 5.2069,30.6426 C2.4859,32.0956 0.9999,33.9636 0.9999,35.9996 C0.9999,41.0076 9.6439,43.9996 17.9999,43.9996 C26.3569,43.9996 34.9999,41.0076 34.9999,35.9996 C34.9999,33.9596 33.5159,32.0906 30.7959,30.6406" id="Fill-5" fill="#444444"/> <path d="M18,2 C26.822,2 34,9.178 34,18 C34,22.803 31.862,27.107 28.5,30.043 C28.388,30.109 28.292,30.197 28.211,30.306 C25.438,32.61 21.879,34 18,34 C14.118,34 10.556,32.608 7.782,30.3 C7.706,30.2 7.618,30.119 7.514,30.056 C4.144,27.12 2,22.81 2,18 C2,9.178 9.178,2 18,2" id="Fill-8" fill="#EBEFF2"/> <path d="M18,42 C9.415,42 3,38.832 3,36 C3,34.643 4.422,33.203 6.816,32.078 C9.891,34.526 13.774,36 18,36 C22.228,36 26.111,34.525 29.187,32.076 C31.579,33.199 33,34.639 33,36 C33,38.832 26.585,42 18,42" id="Fill-10" fill="#FFAB91"/> <path d="M18,28 C23.51375,28 28,23.51375 28,18 C28,12.48625 23.51375,8 18,8 C12.48625,8 8,12.48625 8,18 C8,23.51375 12.48625,28 18,28" id="Fill-1" fill="#444444"/> <path d="M18,10 C22.412,10 26,13.588 26,18 C26,22.412 22.412,26 18,26 C13.588,26 10,22.412 10,18 C10,13.588 13.588,10 18,10" id="Fill-3" fill="#C5C9E5"/> <path d="M22,18 C22,15.7946667 20.2053333,14 18,14 C15.7946667,14 14,15.7946667 14,18 C14,20.2053333 15.7946667,22 18,22 C20.2053333,22 22,20.2053333 22,18 Z" id="Fill-12" fill="#444444"/> <path d="M15.5,13 C16.8775,13 18,14.1225 18,15.5 C18,16.8775 16.8775,18 15.5,18 C14.1225,18 13,16.8775 13,15.5 C13,14.1225 14.1225,13 15.5,13" id="Fill-14" fill="#FFFFFF"/> </g> </g> </g> </g> </g> </g> 
    </symbol>
    <symbol id="draw" viewBox="0 0 44 44">
       <!-- Generator: sketchtool 41 (35326) - http://www.bohemiancoding.com/sketch --> <title>F66D4732-C9FB-4704-B770-5CB151B1CA42</title> <desc>Created with sketchtool.</desc>  <g id="Page-1" stroke="none" stroke-width="1" fill="none" fill-rule="evenodd"> <g id="signature" transform="translate(-150.000000, -342.000000)"> <g id="Group-2-Copy-2" transform="translate(100.000000, 111.000000)"> <g id="Group-17" transform="translate(30.000000, 80.000000)"> <g id="Group-12" transform="translate(0.000000, 128.000000)"> <g id="draw" transform="translate(20.000000, 23.000000)"> <path d="M1,42 L27.0722656,42 C34.3815104,42 44,32 44,32 L44,35 C44,35 34.1126302,44 26.6689453,44 L1,44 L1,42 Z" id="Rectangle-155" fill="#F44336"/> <path d="M43.6978,18.4815 L25.4978,0.2815 C25.1228,-0.0935 24.4588,-0.0935 24.0838,0.2815 C21.1668,3.1985 19.7168,6.6925 19.7268,10.1805 C18.3638,11.1595 11.3748,15.9395 3.6798,16.7945 C3.3768,16.8275 3.1058,16.9985 2.9438,17.2565 C2.7808,17.5145 2.7458,17.8325 2.8468,18.1205 C6.9738,29.8335 0.1838,42.3795 0.1148,42.5045 C0.1048,42.5235 0.1058,42.5435 0.0968,42.5615 C0.0788,42.6015 0.0638,42.6395 0.0508,42.6815 C0.0358,42.7265 0.0258,42.7695 0.0168,42.8165 C0.0098,42.8575 0.0028,42.8955 0.0008,42.9365 C-0.0012,42.9765 0.0008,43.0155 0.0038,43.0565 C0.0078,43.1025 0.0138,43.1465 0.0238,43.1935 C0.0318,43.2335 0.0398,43.2715 0.0528,43.3105 C0.0678,43.3515 0.0878,43.3895 0.1068,43.4285 C0.1178,43.4525 0.1188,43.4775 0.1318,43.5005 C0.1468,43.5255 0.1678,43.5435 0.1848,43.5665 C0.2018,43.5905 0.2188,43.6125 0.2388,43.6345 C0.2498,43.6475 0.2588,43.6625 0.2698,43.6735 C0.2758,43.6805 0.2778,43.6895 0.2838,43.6955 C0.2858,43.6975 0.2878,43.6975 0.2898,43.6995 C0.3748,43.7835 0.4748,43.8445 0.5808,43.8925 C0.6068,43.9045 0.6318,43.9145 0.6578,43.9235 C0.6868,43.9335 0.7128,43.9495 0.7418,43.9565 C0.8238,43.9775 0.9078,43.9885 0.9898,43.9885 L0.9908,43.9885 L0.9908,43.9885 L0.9918,43.9885 C1.0998,43.9885 1.2078,43.9635 1.3138,43.9275 C1.3168,43.9265 1.3208,43.9245 1.3238,43.9235 C1.3518,43.9145 1.3778,43.9025 1.4058,43.8895 C1.4358,43.8755 1.4688,43.8665 1.4988,43.8485 C1.4998,43.8475 1.5018,43.8475 1.5028,43.8465 C1.6168,43.7795 13.0748,37.0805 25.8888,41.1415 C26.1748,41.2315 26.4858,41.1915 26.7358,41.0265 C26.9868,40.8635 27.1518,40.5965 27.1848,40.2985 C28.0138,32.8315 32.5698,25.9885 33.7208,24.3605 C33.7608,24.3615 33.8018,24.3675 33.8418,24.3675 L33.8428,24.3675 C37.3638,24.3675 40.7718,22.8215 43.6978,19.8955 C44.0888,19.5045 44.0888,18.8725 43.6978,18.4815" id="Fill-1" fill="#444444"/> <path d="M25.356,38.8994 C17.373,36.7094 10.112,38.2534 5.519,39.8754 L14.298,31.0954 C14.371,31.0224 14.417,30.9344 14.462,30.8474 C15.042,31.1914 15.698,31.3874 16.389,31.3874 C17.404,31.3874 18.359,30.9934 19.078,30.2754 C20.56,28.7944 20.56,26.3824 19.078,24.9014 C17.644,23.4654 15.14,23.4654 13.704,24.9014 C12.454,26.1524 12.272,28.0604 13.132,29.5164 C13.045,29.5624 12.957,29.6084 12.884,29.6814 L3.979,38.5864 C5.659,33.8314 7.377,26.2364 5.111,18.6184 C11.715,17.5664 17.5,14.1024 19.951,12.4604 C20.451,15.1194 21.808,17.7014 24.043,19.9354 C26.279,22.1714 28.808,23.5854 31.459,24.1194 C29.789,26.6274 26.389,32.3664 25.356,38.8994" id="Fill-4" fill="#EBEFF2"/> <path d="M15.1182,26.3154 C15.4582,25.9754 15.9102,25.7884 16.3912,25.7884 C16.8722,25.7884 17.3242,25.9754 17.6632,26.3154 C18.3652,27.0174 18.3652,28.1594 17.6642,28.8604 C16.9832,29.5394 15.7982,29.5424 15.1182,28.8614 C14.4172,28.1604 14.4172,27.0174 15.1182,26.3154" id="Fill-6" fill="#FFFFFF"/> <path d="M33.8413,22.3677 C30.8723,22.3677 27.9723,21.0377 25.4563,18.5217 C20.6753,13.7407 20.4633,7.3777 24.8133,2.4257 L41.5553,19.1677 C39.1913,21.2647 36.5413,22.3677 33.8413,22.3677" id="Fill-8" fill="#C5C9E5"/> </g> </g> </g> </g> </g> </g> 
    </symbol>
    <symbol id="email-mobile" viewBox="0 0 45 44">
       <!-- Generator: sketchtool 41 (35326) - http://www.bohemiancoding.com/sketch --> <title>38FBF48D-335C-4563-859F-BD5F2D14987E</title> <desc>Created with sketchtool.</desc>  <g id="Page-1" stroke="none" stroke-width="1" fill="none" fill-rule="evenodd"> <g id="signature" transform="translate(-499.000000, -542.000000)"> <g id="Group-2-Copy-2" transform="translate(100.000000, 111.000000)"> <g id="Group-17" transform="translate(30.000000, 80.000000)"> <g id="Group-14" transform="translate(350.000000, 328.000000)"> <g id="email-mobile" transform="translate(20.000000, 23.000000)"> <path d="M12,2.00492334 C12,0.897634756 12.8892617,0 14.0017433,0 L41.9982567,0 C43.103789,0 44,0.898855112 44,2.00492334 L44,41.9950767 C44,43.1023652 43.1107383,44 41.9982567,44 L14.0017433,44 C12.896211,44 12,43.1011449 12,41.9950767 L12,2.00492334 Z" id="Path" fill="#444444"/> <polygon id="Path" fill="#CFD8DC" points="14 2 42 2 42 42 14 42"/> <polygon id="Rectangle-222" fill="#444444" points="26 3 30 3 30 4 26 4"/> <rect id="Rectangle-215" fill="#444444" x="16" y="5" width="24" height="29"/> <rect id="Rectangle-215-Copy" fill="#FFFFFF" x="18" y="7" width="20" height="25"/> <path d="M29.1419868,13.0835387 C29.2026462,12.7972489 30.6063601,11.371117 33.7129802,11.2085387 C30.4326563,10.5150954 27.6497453,11.6561721 27.9992384,13.0835387 C27.6518318,16.5072463 33.9103823,18.4153184 33.7129802,18.7085387 C33.9103823,23.3554188 24.1730625,20.7873541 20,26.2085387 C24.6946954,21.9284309 35.7799143,25.3413888 35.9984769,18.7085387 C36.1174108,16.4764296 29.2318576,15.3653136 29.1419868,13.0835387" id="Path" fill="#F44336"/> <circle id="Oval-3" fill="#444444" cx="28" cy="38" r="3"/> <circle id="Oval-3" fill="#FFFFFF" cx="28" cy="38" r="1"/> <g id="email" transform="translate(0.000000, 13.000000)"> <g id="Shape"> <use fill="#444444" fill-rule="evenodd" xlink:href="#path-1"/> <use stroke="#FFFFFF" mask="url(#mask-2)" stroke-width="2" xlink:href="#path-1"/> </g> <polygon id="Path" fill="#FFECB3" points="20.307 2 3.693 2 12 8.715"/> <path d="M3,16 L21,16 C21.551,16 22,15.551 22,15 L22,3.203 L12.628,10.778 C12.445,10.926 12.223,11 12,11 C11.777,11 11.555,10.926 11.372,10.778 L2,3.203 L2,15 C2,15.551 2.449,16 3,16 L3,16 Z" id="Path" fill="#FFECB3"/> <path d="M1.5,15.5 L9.01664829,7.98335183" id="Line" stroke="#444444" stroke-width="2" stroke-linecap="square"/> <path d="M14.5,15.5 L22.0166483,7.98335183" id="Line-Copy" stroke="#444444" stroke-width="2" stroke-linecap="square" transform="translate(18.500000, 11.500000) scale(-1, 1) translate(-18.500000, -11.500000) "/> </g> </g> </g> </g> </g> </g> </g> 
    </symbol>
    <symbol id="gallery-signature" viewBox="0 0 32 32">
       <!-- Generator: sketchtool 41 (35326) - http://www.bohemiancoding.com/sketch --> <title>47AA2595-63BA-492F-9413-BCCDB14CCE4E</title> <desc>Created with sketchtool.</desc>  <g id="Page-1" stroke="none" stroke-width="1" fill="none" fill-rule="evenodd"> <g id="signature" transform="translate(-120.000000, -125.000000)"> <g id="Group-2-Copy-2" transform="translate(100.000000, 111.000000)"> <g id="gallery-signature" transform="translate(20.000000, 14.000000)"> <path d="M4,5.99124431 C4,4.89151044 4.89989752,4 5.99124431,4 L30.0087557,4 C31.1084896,4 32,4.89989752 32,5.99124431 L32,30.0087557 C32,31.1084896 31.1001025,32 30.0087557,32 L5.99124431,32 C4.89151044,32 4,31.1001025 4,30.0087557 L4,5.99124431 Z" id="Rectangle-1563" fill="#444444"/> <rect id="Rectangle-1563" fill="#FAFAFA" x="6" y="6" width="24" height="24"/> <path d="M0,1.99124431 C0,0.891510444 0.899897516,0 1.99124431,0 L26.0087557,0 C27.1084896,0 28,0.899897516 28,1.99124431 L28,26.0087557 C28,27.1084896 27.1001025,28 26.0087557,28 L1.99124431,28 C0.891510444,28 0,27.1001025 0,26.0087557 L0,1.99124431 Z" id="Rectangle-1563" fill="#444444"/> <rect id="Rectangle-1563" fill="#FAFAFA" x="2" y="2" width="24" height="24"/> <path d="M22.1818182,17.8116364 L13.2661818,17.8116364 C13.5476364,16.8894545 13.8007273,15.8930909 14.0349091,14.8741818 C14.6603636,14.448 15.2749091,14.0989091 15.8014545,13.8901818 C16.2356364,13.7185455 16.4545455,13.7054545 16.5374545,13.7054545 C16.5636364,13.7054545 16.576,13.7076364 16.5774545,13.7047273 C16.5934545,13.7454545 16.7527273,14.2436364 15.8356364,16.0763636 C15.6305455,16.4872727 15.6712727,16.7890909 15.9570909,16.9745455 C16.4029091,17.2632727 16.6109091,17.0109091 17.3847273,16.0669091 C17.9083636,15.4283636 18.784,14.3585455 19.2181818,14.0647273 C19.68,13.7534545 19.9461818,13.7418182 20.0029091,13.7883636 C20.1083636,13.8705455 20.216,14.3789091 19.8530909,15.3490909 C19.7476364,15.632 19.8916364,15.9454545 20.1730909,16.0516364 C20.4574545,16.1578182 20.7694545,16.0123636 20.8749091,15.7316364 C21.36,14.4327273 21.288,13.4116364 20.6778182,12.9309091 C20.3789091,12.696 19.7141818,12.4123636 18.6072727,13.1607273 C18.3461818,13.3374545 18.0356364,13.6392727 17.688,14.0218182 C17.7185455,13.5672727 17.6167273,13.2232727 17.3854545,12.9716364 C16.792,12.3236364 15.7432727,12.7389091 15.4,12.8756364 C15.088,12.9992727 14.7374545,13.1738182 14.3643636,13.3883636 C14.4494545,12.9941818 14.5323636,12.6014545 14.6152727,12.2123636 C14.648,12.0574545 14.68,11.904 14.7127273,11.7512727 C15.6145455,11.2778182 16.3810909,10.7418182 16.76,10.2356364 C18.3258182,8.14836364 18.1454545,7.008 17.8989091,6.51490909 C17.6807273,6.07854545 17.2538182,5.81818182 16.7570909,5.81818182 C15.9970909,5.81818182 15.2414545,6.38472727 14.7854545,7.29672727 C14.4283636,8.01090909 14.1061818,9.37309091 13.7556364,11.0058182 C12.4727273,11.6116364 10.976,12.0865455 10.1818182,12.0865455 C9.88072727,12.0865455 9.63636364,12.3309091 9.63636364,12.632 C9.63636364,12.9330909 9.88072727,13.1774545 10.1818182,13.1774545 C10.9876364,13.1774545 12.2516364,12.8334545 13.4741818,12.3287273 C13.3461818,12.9323636 13.208,13.5796364 13.0581818,14.2392727 C11.5985455,15.2916364 10.1214545,16.6843636 9.48218182,17.8116364 L5.45454545,17.8116364 C5.25381818,17.8116364 5.09090909,17.9745455 5.09090909,18.1752727 C5.09090909,18.376 5.25381818,18.5389091 5.45454545,18.5389091 L9.11418182,18.5389091 C8.67636364,19.5003636 8.07345455,21.1694545 8.69236364,22.0189091 C8.86181818,22.2516364 9.17163636,22.5003636 9.71781818,22.5003636 C9.83636364,22.5003636 9.96581818,22.4887273 10.1069091,22.4625455 C11.3963636,22.2254545 12.3105455,20.6487273 13.0312727,18.5381818 L22.1818182,18.5381818 C22.3825455,18.5381818 22.5454545,18.3752727 22.5454545,18.1745455 C22.5454545,17.9738182 22.3825455,17.8116364 22.1818182,17.8116364 L22.1818182,17.8116364 Z M15.7607273,7.78472727 C16.0610909,7.184 16.488,6.90981818 16.7563636,6.90981818 C16.8661818,6.90981818 16.8989091,6.95563636 16.9229091,7.00363636 C17.0567273,7.27054545 16.9883636,8.11345455 15.8865455,9.58181818 C15.7134545,9.81309091 15.4094545,10.0632727 15.0247273,10.3127273 C15.2778182,9.19272727 15.5229091,8.26109091 15.7607273,7.78472727 L15.7607273,7.78472727 Z M12.6545455,15.9250909 C12.488,16.576 12.3105455,17.2130909 12.1207273,17.8116364 L10.7905455,17.8116364 C11.2443636,17.2196364 11.9127273,16.5505455 12.6545455,15.9250909 L12.6545455,15.9250909 Z M9.90981818,21.3905455 C9.69818182,21.4298182 9.59345455,21.4029091 9.57454545,21.3767273 C9.37454545,21.1018182 9.66472727,19.8218182 10.3287273,18.5389091 L11.8763636,18.5389091 C11.3207273,20.0945455 10.6705455,21.2509091 9.90981818,21.3905455 L9.90981818,21.3905455 Z" id="Shape" fill="#2196F3"/> <path d="M5.19718199,15.8932727 C5.26845472,15.9638182 5.36154563,15.9994545 5.45463654,15.9994545 C5.54772745,15.9994545 5.64081836,15.9638182 5.71209108,15.8932727 L6.54554563,15.0590909 L7.37900017,15.8925455 C7.4502729,15.9638182 7.54336381,15.9994545 7.63645472,15.9994545 C7.72954563,15.9994545 7.82263654,15.9638182 7.89390927,15.8932727 C8.03572745,15.7514545 8.03572745,15.5209091 7.89390927,15.3790909 L7.05972745,14.5449091 L7.89318199,13.7114545 C8.03500017,13.5696364 8.03500017,13.3390909 7.89318199,13.1972727 C7.75136381,13.0554545 7.52081836,13.0554545 7.37900017,13.1972727 L6.54554563,14.0307273 L5.71209108,13.1972727 C5.5702729,13.0554545 5.33972745,13.0554545 5.19790927,13.1972727 C5.05609108,13.3390909 5.05609108,13.5696364 5.19790927,13.7114545 L6.03136381,14.5449091 L5.19790927,15.3783636 C5.05536381,15.5209091 5.05536381,15.7507273 5.19718199,15.8932727 L5.19718199,15.8932727 Z" id="Shape" fill="#2196F3"/> </g> </g> </g> </g> 
    </symbol>
    <symbol id="qr-mobile" viewBox="0 0 32 44">
       <!-- Generator: sketchtool 41 (35326) - http://www.bohemiancoding.com/sketch --> <title>1F88FA5E-70B1-4E8F-9F73-2810B24F9CCB</title> <desc>Created with sketchtool.</desc>  <g id="Page-1" stroke="none" stroke-width="1" fill="none" fill-rule="evenodd"> <g id="signature" transform="translate(-506.000000, -440.000000)"> <g id="Group-2-Copy-2" transform="translate(100.000000, 111.000000)"> <g id="Group-17" transform="translate(30.000000, 80.000000)"> <g id="Group-11" transform="translate(350.000000, 228.000000)"> <g id="qr-mobile" transform="translate(26.000000, 21.000000)"> <path d="M0,2.00492334 C0,0.897634756 0.889261723,0 2.00174332,0 L29.9982567,0 C31.103789,0 32,0.898855112 32,2.00492334 L32,41.9950767 C32,43.1023652 31.1107383,44 29.9982567,44 L2.00174332,44 C0.89621101,44 0,43.1011449 0,41.9950767 L0,2.00492334 Z" id="Path" fill="#444444"/> <polygon id="Path" fill="#CFD8DC" points="2 2 30 2 30 42 2 42"/> <polygon id="Rectangle-222" fill="#444444" points="14 3 18 3 18 4 14 4"/> <rect id="Rectangle-215" fill="#444444" x="4" y="5" width="24" height="29"/> <rect id="Rectangle-215-Copy" fill="#FFFFFF" x="6" y="7" width="20" height="25"/> <path d="M9,12 L14,12 L14,17 L9,17 L9,12 Z M10,13 L13,13 L13,16 L10,16 L10,13 Z M11,14 L12,14 L12,15 L11,15 L11,14 Z M9,21 L14,21 L14,26 L9,26 L9,21 Z M9,18 L10,18 L10,20 L9,20 L9,18 Z M10,18 L11,18 L11,19 L10,19 L10,18 Z M11,19 L12,19 L12,20 L11,20 L11,19 Z M13,18 L14,18 L14,19 L13,19 L13,18 Z M15,14 L16,14 L16,15 L15,15 L15,14 Z M16,12 L17,12 L17,13 L16,13 L16,12 Z M17,19 L18,19 L18,20 L17,20 L17,19 Z M20,18 L21,18 L21,19 L20,19 L20,18 Z M22,18 L23,18 L23,19 L22,19 L22,18 Z M21,19 L22,19 L22,20 L21,20 L21,19 Z M18,21 L19,21 L19,22 L18,22 L18,21 Z M19,22 L20,22 L20,23 L19,23 L19,22 Z M18,23 L19,23 L19,24 L18,24 L18,23 Z M19,24 L20,24 L20,25 L19,25 L19,24 Z M18,25 L19,25 L19,26 L18,26 L18,25 Z M17,25 L18,25 L18,26 L17,26 L17,25 Z M15,25 L16,25 L16,26 L15,26 L15,25 Z M22,23 L23,23 L23,24 L22,24 L22,23 Z M21,22 L22,22 L22,23 L21,23 L21,22 Z M22,25 L23,25 L23,26 L22,26 L22,25 Z M12,18 L13,18 L13,20 L12,20 L12,18 Z M14,18 L15,18 L15,20 L14,20 L14,18 Z M15,16 L16,16 L16,18 L15,18 L15,16 Z M16,17 L17,17 L17,19 L16,19 L16,17 Z M15,19 L16,19 L16,21 L15,21 L15,19 Z M16,20 L17,20 L17,22 L16,22 L16,20 Z M15,22 L16,22 L16,24 L15,24 L15,22 Z M16,23 L17,23 L17,25 L16,25 L16,23 Z M17,22 L18,22 L18,24 L17,24 L17,22 Z M18,18 L19,18 L19,20 L18,20 L18,18 Z M19,19 L20,19 L20,21 L19,21 L19,19 Z M20,20 L21,20 L21,22 L20,22 L20,20 Z M22,20 L23,20 L23,22 L22,22 L22,20 Z M20,23 L21,23 L21,26 L20,26 L20,23 Z M16,14 L17,14 L17,16 L16,16 L16,14 Z M15,12 L16,12 L16,14 L15,14 L15,12 Z M10,22 L13,22 L13,25 L10,25 L10,22 Z M11,23 L12,23 L12,24 L11,24 L11,23 Z M18,12 L23,12 L23,17 L18,17 L18,12 Z M19,13 L22,13 L22,16 L19,16 L19,13 Z M20,14 L21,14 L21,15 L20,15 L20,14 Z" id="Combined-Shape" fill="#F44336"/> <circle id="Oval-3" fill="#444444" cx="16" cy="38" r="3"/> <circle id="Oval-3" fill="#FFFFFF" cx="16" cy="38" r="1"/> </g> </g> </g> </g> </g> </g> 
    </symbol>
    <symbol id="sms-mobile" viewBox="0 0 45 44">
       <!-- Generator: sketchtool 41 (35326) - http://www.bohemiancoding.com/sketch --> <title>BABC4590-9FF7-468F-8B6D-0389BC6043BF</title> <desc>Created with sketchtool.</desc>  <g id="Page-1" stroke="none" stroke-width="1" fill="none" fill-rule="evenodd"> <g id="signature" transform="translate(-149.000000, -542.000000)"> <g id="Group-2-Copy-2" transform="translate(100.000000, 111.000000)"> <g id="Group-17" transform="translate(30.000000, 80.000000)"> <g id="Group-13" transform="translate(0.000000, 328.000000)"> <g id="sms-mobile" transform="translate(20.000000, 23.000000)"> <path d="M12,2.00492334 C12,0.897634756 12.8892617,0 14.0017433,0 L41.9982567,0 C43.103789,0 44,0.898855112 44,2.00492334 L44,41.9950767 C44,43.1023652 43.1107383,44 41.9982567,44 L14.0017433,44 C12.896211,44 12,43.1011449 12,41.9950767 L12,2.00492334 Z" id="Path" fill="#444444"/> <polygon id="Path" fill="#CFD8DC" points="14 2 42 2 42 42 14 42"/> <polygon id="Rectangle-222" fill="#444444" points="26 3 30 3 30 4 26 4"/> <rect id="Rectangle-215" fill="#444444" x="16" y="5" width="24" height="29"/> <rect id="Rectangle-215-Copy" fill="#FFFFFF" x="18" y="7" width="20" height="25"/> <path d="M29.1419868,13.0835387 C29.2026462,12.7972489 30.6063601,11.371117 33.7129802,11.2085387 C30.4326563,10.5150954 27.6497453,11.6561721 27.9992384,13.0835387 C27.6518318,16.5072463 33.9103823,18.4153184 33.7129802,18.7085387 C33.9103823,23.3554188 24.1730625,20.7873541 20,26.2085387 C24.6946954,21.9284309 35.7799143,25.3413888 35.9984769,18.7085387 C36.1174108,16.4764296 29.2318576,15.3653136 29.1419868,13.0835387" id="Path" fill="#F44336"/> <circle id="Oval-3" fill="#444444" cx="28" cy="38" r="3"/> <circle id="Oval-3" fill="#FFFFFF" cx="28" cy="38" r="1"/> <g id="message-2" transform="translate(0.000000, 11.000000)"> <g id="Path"> <use fill="#444444" fill-rule="evenodd" xlink:href="#path-1"/> <use stroke="#FFFFFF" mask="url(#mask-2)" stroke-width="2" xlink:href="#path-1"/> </g> <path d="M22,2 L2,2 L2,15 L5,15 C5.552,15 6,15.448 6,16 L6,18.149 L8.219,15.376 C8.231,15.361 8.248,15.355 8.26,15.341 C8.308,15.288 8.364,15.248 8.421,15.206 C8.471,15.17 8.516,15.132 8.57,15.106 C8.625,15.079 8.684,15.068 8.744,15.052 C8.812,15.033 8.877,15.014 8.947,15.011 C8.965,15.01 8.981,15 9,15 L22,15 L22,2 L22,2 Z" id="Path" fill="#E1F5FE"/> <rect id="Rectangle-737" fill="#444444" x="6" y="5" width="12" height="1"/> <rect id="Rectangle-737-Copy" fill="#444444" x="6" y="8" width="12" height="1"/> <rect id="Rectangle-737-Copy-2" fill="#444444" x="6" y="11" width="12" height="1"/> </g> </g> </g> </g> </g> </g> </g> 
    </symbol>
    <symbol id="svg" viewBox="0 0 100 100">
        <symbol id="camera" viewBox="0 0 36 44"> <title>F31B205A-9082-4A5A-8BE4-AC03C999524C</title> <g fill="none" fill-rule="evenodd"> <path d="M30.796 30.64C34.01 27.389 36 22.924 36 18c0-9.925-8.075-18-18-18S0 8.075 0 18c0 4.925 1.99 9.39 5.207 12.643C2.486 32.096 1 33.963 1 36c0 5.008 8.644 8 17 8 8.357 0 17-2.992 17-8 0-2.04-1.484-3.91-4.204-5.36" fill="#444"/> <path d="M18 2c8.822 0 16 7.178 16 16 0 4.803-2.138 9.107-5.5 12.043a.976.976 0 0 0-.289.263A15.929 15.929 0 0 1 18 34a15.927 15.927 0 0 1-10.218-3.7.956.956 0 0 0-.268-.244C4.144 27.12 2 22.81 2 18 2 9.178 9.178 2 18 2" fill="#EBEFF2"/> <path d="M18 42c-8.585 0-15-3.168-15-6 0-1.357 1.422-2.797 3.816-3.922A17.899 17.899 0 0 0 18 36c4.228 0 8.111-1.475 11.187-3.924C31.579 33.199 33 34.639 33 36c0 2.832-6.415 6-15 6" fill="#FFAB91"/> <path d="M18 28c5.514 0 10-4.486 10-10S23.514 8 18 8 8 12.486 8 18s4.486 10 10 10" fill="#444"/> <path d="M18 10c4.412 0 8 3.588 8 8s-3.588 8-8 8-8-3.588-8-8 3.588-8 8-8" fill="#C5C9E5"/> <path d="M22 18c0-2.205-1.795-4-4-4s-4 1.795-4 4 1.795 4 4 4 4-1.795 4-4z" fill="#444"/> <path d="M15.5 13c1.378 0 2.5 1.123 2.5 2.5 0 1.378-1.122 2.5-2.5 2.5a2.504 2.504 0 0 1-2.5-2.5c0-1.377 1.123-2.5 2.5-2.5" fill="#FFF"/> </g> </symbol> <symbol id="draw" viewBox="0 0 44 44"> <title>F66D4732-C9FB-4704-B770-5CB151B1CA42</title> <g fill="none" fill-rule="evenodd"> <path d="M1 42h26.072C34.382 42 44 32 44 32v3s-9.887 9-17.331 9H1v-2z" fill="#F44336"/> <path d="M43.698 18.482l-18.2-18.2a1.03 1.03 0 0 0-1.414 0c-2.917 2.917-4.367 6.41-4.357 9.899-1.363.979-8.352 5.759-16.047 6.614a.998.998 0 0 0-.833 1.325C6.974 29.834.184 42.38.115 42.505c-.01.02-.01.04-.018.058a1.023 1.023 0 0 0-.08.255c-.007.04-.014.078-.016.12a.967.967 0 0 0 .023.257c.008.04.016.078.029.116.015.041.035.08.054.118.01.025.012.05.025.073.015.025.036.043.053.066a.7.7 0 0 0 .054.068c.01.013.02.028.03.038.007.008.009.017.015.023l.006.004a.985.985 0 0 0 .368.223c.029.01.055.026.084.033.082.021.166.032.248.032h.002c.108 0 .216-.024.322-.06l.01-.005a.711.711 0 0 0 .082-.034c.03-.014.063-.023.093-.04 0-.002.003-.002.004-.002.114-.068 11.572-6.767 24.386-2.706a1 1 0 0 0 1.296-.843c.829-7.467 5.385-14.31 6.536-15.938.04.002.08.008.12.008h.002c3.52 0 6.929-1.546 9.855-4.473a.999.999 0 0 0 0-1.413" fill="#444"/> <path d="M25.356 38.9c-7.983-2.19-15.244-.647-19.837.975l8.779-8.78a.954.954 0 0 0 .164-.248 3.764 3.764 0 0 0 4.616-.572 3.804 3.804 0 0 0 0-5.374c-1.434-1.436-3.938-1.436-5.374 0-1.25 1.251-1.432 3.16-.572 4.615-.087.046-.175.092-.248.165l-8.905 8.905c1.68-4.755 3.398-12.35 1.132-19.968 6.604-1.052 12.389-4.516 14.84-6.158.5 2.66 1.857 5.241 4.092 7.475 2.236 2.236 4.765 3.65 7.416 4.184-1.67 2.508-5.07 8.247-6.103 14.78" fill="#EBEFF2"/> <path d="M15.118 26.315c.34-.34.792-.527 1.273-.527a1.802 1.802 0 0 1 1.273 3.072c-.68.68-1.866.682-2.546.001a1.804 1.804 0 0 1 0-2.546" fill="#FFF"/> <path d="M33.841 22.368c-2.969 0-5.869-1.33-8.385-3.846-4.78-4.781-4.993-11.144-.643-16.096l16.742 16.742c-2.364 2.097-5.014 3.2-7.714 3.2" fill="#C5C9E5"/> </g> </symbol> <symbol id="gallery-signature" viewBox="0 0 32 32"> <title>47AA2595-63BA-492F-9413-BCCDB14CCE4E</title> <g fill="none" fill-rule="evenodd"> <path d="M4 5.991C4 4.891 4.9 4 5.991 4H30.01C31.109 4 32 4.9 32 5.991V30.01c0 1.1-.9 1.991-1.991 1.991H5.99C4.891 32 4 31.1 4 30.009V5.99z" fill="#444"/> <path fill="#FAFAFA" d="M6 6h24v24H6z"/> <path d="M0 1.991C0 .891.9 0 1.991 0H26.01C27.109 0 28 .9 28 1.991V26.01c0 1.1-.9 1.991-1.991 1.991H1.99C.891 28 0 27.1 0 26.009V1.99z" fill="#444"/> <path fill="#FAFAFA" d="M2 2h24v24H2z"/> <path d="M22.182 17.812h-8.916a43.76 43.76 0 0 0 .769-2.938c.625-.426 1.24-.775 1.766-.984.435-.171.654-.185.736-.185.027 0 .039.003.04 0 .016.04.176.539-.741 2.371-.205.411-.165.713.121.899.446.288.654.036 1.428-.908.523-.639 1.399-1.708 1.833-2.002.462-.312.728-.323.785-.277.105.083.213.59-.15 1.561a.547.547 0 0 0 1.022.383c.485-1.3.413-2.32-.197-2.801-.3-.235-.964-.519-2.07.23-.262.176-.572.478-.92.86.03-.454-.071-.798-.303-1.05-.593-.647-1.642-.232-1.985-.095a8.167 8.167 0 0 0-1.036.512l.251-1.176.098-.46c.902-.474 1.668-1.01 2.047-1.516 1.566-2.088 1.385-3.228 1.139-3.721a1.25 1.25 0 0 0-1.142-.697c-.76 0-1.516.567-1.972 1.479-.357.714-.679 2.076-1.03 3.709-1.282.606-2.779 1.08-3.573 1.08a.546.546 0 0 0 0 1.091c.806 0 2.07-.344 3.292-.848-.128.603-.266 1.25-.416 1.91-1.46 1.053-2.937 2.445-3.576 3.573H5.455a.364.364 0 0 0 0 .727h3.66c-.439.961-1.042 2.63-.423 3.48.17.233.48.481 1.026.481.118 0 .248-.011.389-.037 1.29-.238 2.204-1.814 2.924-3.925h9.15a.364.364 0 0 0 0-.726zM15.76 7.785c.3-.601.727-.875.995-.875.11 0 .143.046.167.094.134.267.065 1.11-1.036 2.578-.174.231-.478.481-.862.73.253-1.12.498-2.05.736-2.527zm-3.106 8.14c-.167.651-.344 1.288-.534 1.887h-1.33c.453-.592 1.122-1.261 1.864-1.887zM9.91 21.391c-.212.039-.317.012-.335-.014-.2-.275.09-1.555.754-2.838h1.547c-.555 1.556-1.205 2.712-1.966 2.852z" fill="#2196F3"/> <path d="M5.197 15.893a.365.365 0 0 0 .515 0l.834-.834.833.834a.363.363 0 1 0 .515-.514l-.834-.834.833-.834a.364.364 0 0 0-.514-.514l-.833.834-.834-.834a.364.364 0 0 0-.514.514l.833.834-.833.833a.364.364 0 0 0 0 .515z" fill="#2196F3"/> </g> </symbol> <symbol id="qr-mobile" viewBox="0 0 32 44"> <title>1F88FA5E-70B1-4E8F-9F73-2810B24F9CCB</title> <g fill="none" fill-rule="evenodd"> <path d="M0 2.005C0 .898.89 0 2.002 0h27.996C31.104 0 32 .899 32 2.005v39.99C32 43.102 31.11 44 29.998 44H2.002A2.004 2.004 0 0 1 0 41.995V2.005z" fill="#444"/> <path fill="#CFD8DC" d="M2 2h28v40H2z"/> <path fill="#444" d="M14 3h4v1h-4zM4 5h24v29H4z"/> <path fill="#FFF" d="M6 7h20v25H6z"/> <path d="M9 12h5v5H9v-5zm1 1h3v3h-3v-3zm1 1h1v1h-1v-1zm-2 7h5v5H9v-5zm0-3h1v2H9v-2zm1 0h1v1h-1v-1zm1 1h1v1h-1v-1zm2-1h1v1h-1v-1zm2-4h1v1h-1v-1zm1-2h1v1h-1v-1zm1 7h1v1h-1v-1zm3-1h1v1h-1v-1zm2 0h1v1h-1v-1zm-1 1h1v1h-1v-1zm-3 2h1v1h-1v-1zm1 1h1v1h-1v-1zm-1 1h1v1h-1v-1zm1 1h1v1h-1v-1zm-1 1h1v1h-1v-1zm-1 0h1v1h-1v-1zm-2 0h1v1h-1v-1zm7-2h1v1h-1v-1zm-1-1h1v1h-1v-1zm1 3h1v1h-1v-1zm-10-7h1v2h-1v-2zm2 0h1v2h-1v-2zm1-2h1v2h-1v-2zm1 1h1v2h-1v-2zm-1 2h1v2h-1v-2zm1 1h1v2h-1v-2zm-1 2h1v2h-1v-2zm1 1h1v2h-1v-2zm1-1h1v2h-1v-2zm1-4h1v2h-1v-2zm1 1h1v2h-1v-2zm1 1h1v2h-1v-2zm2 0h1v2h-1v-2zm-2 3h1v3h-1v-3zm-4-9h1v2h-1v-2zm-1-2h1v2h-1v-2zm-5 10h3v3h-3v-3zm1 1h1v1h-1v-1zm7-11h5v5h-5v-5zm1 1h3v3h-3v-3zm1 1h1v1h-1v-1z" fill="#F44336"/> <circle fill="#444" cx="16" cy="38" r="3"/> <circle fill="#FFF" cx="16" cy="38" r="1"/> </g> </symbol> <symbol id="sms-mobile" viewBox="0 0 45 44"> <title>BABC4590-9FF7-468F-8B6D-0389BC6043BF</title> <g transform="translate(1)" fill="none" fill-rule="evenodd"> <path d="M12 2.005C12 .898 12.89 0 14.002 0h27.996C43.104 0 44 .899 44 2.005v39.99C44 43.102 43.11 44 41.998 44H14.002A2.004 2.004 0 0 1 12 41.995V2.005z" fill="#444"/> <path fill="#CFD8DC" d="M14 2h28v40H14z"/> <path fill="#444" d="M26 3h4v1h-4zM16 5h24v29H16z"/> <path fill="#FFF" d="M18 7h20v25H18z"/> <path d="M29.142 13.084c.06-.287 1.464-1.713 4.571-1.875-3.28-.694-6.063.447-5.714 1.875-.347 3.423 5.911 5.331 5.714 5.625.197 4.646-9.54 2.078-13.713 7.5 4.695-4.28 15.78-.868 15.998-7.5.12-2.233-6.766-3.344-6.856-5.625" fill="#F44336"/> <circle fill="#444" cx="28" cy="38" r="3"/> <circle fill="#FFF" cx="28" cy="38" r="1"/> <g transform="translate(0 11)"> <use fill="#444" xlink:href="#sms-mobile-a"/> <use stroke="#FFF" mask="url(#sms-mobile-b)" stroke-width="2" xlink:href="#sms-mobile-a"/> </g> <path d="M22 13H2v13h3a1 1 0 0 1 1 1v2.149l2.219-2.773c.012-.015.029-.021.041-.035.048-.053.104-.093.161-.135.05-.036.095-.074.149-.1.055-.027.114-.038.174-.054.068-.019.133-.038.203-.041C8.965 26.01 8.981 26 9 26h13V13z" fill="#E1F5FE"/> <path fill="#444" d="M6 16h12v1H6zM6 19h12v1H6zM6 22h12v1H6z"/> </g> </symbol> <symbol id="type" viewBox="0 0 34 40"> <title>BD91719E-B12C-4F81-80DC-F5B42FD7E188</title> <g fill="none" fill-rule="evenodd"> <path d="M13 6v28h-.999A2.002 2.002 0 0 0 10 35.998v2.004c0 1.104.897 1.998 2.006 1.998h9.988A2.004 2.004 0 0 0 24 38.002v-2.004C24 34.894 23.1 34 21.999 34H21V6h7v2.995c0 1.107.898 2.005 1.998 2.005h2.004A2 2 0 0 0 34 9.002V2.005A2 2 0 0 0 32 0H2a2 2 0 0 0-2 2.005v6.997A2 2 0 0 0 1.998 11h2.004A1.999 1.999 0 0 0 6 8.995V6h7z" fill="#444"/> <path fill="#C8E7C9" d="M19 4h11v5h2V2H2v7h2V4h11v32h-3v2h10v-2h-3z"/> </g> </symbol> <symbol id="upload" viewBox="0 0 44 42"> <title>8E05BB07-0F9F-464A-AC31-3743C3CF9929</title> <g fill="none" fill-rule="evenodd"> <use stroke="#444" mask="url(#upload-b)" stroke-width="4" fill="#E1F5FE" xlink:href="#upload-a"/> <path fill="#E1F5FE" d="M15 32h14v2H15z"/> <path d="M21 21.414l-4.293 4.294a1 1 0 0 1-1.414-1.414l6-6.001a1 1 0 0 1 1.414 0l6 6a1 1 0 0 1-1.414 1.415L23 21.414V41a1 1 0 0 1-2 0V21.414z" fill="#444"/> </g> </symbol> 
    </symbol>
    <symbol id="type" viewBox="0 0 34 40">
       <!-- Generator: sketchtool 41 (35326) - http://www.bohemiancoding.com/sketch --> <title>BD91719E-B12C-4F81-80DC-F5B42FD7E188</title> <desc>Created with sketchtool.</desc>  <g id="Page-1" stroke="none" stroke-width="1" fill="none" fill-rule="evenodd"> <g id="signature" transform="translate(-153.000000, -219.000000)"> <g id="Group-2-Copy-2" transform="translate(100.000000, 111.000000)"> <g id="Group-17" transform="translate(30.000000, 80.000000)"> <g id="Group-19"> <g id="Group-22" transform="translate(22.000000, 28.000000)"> <g id="type" transform="translate(1.000000, 0.000000)"> <path d="M13,6 L13,34 L12.0010434,34 C10.8958977,34 10,34.8982606 10,35.9979131 L10,38.0020869 C10,39.1055038 10.8970601,40 12.0058587,40 L21.9941413,40 C23.1019465,40 24,39.1017394 24,38.0020869 L24,35.9979131 C24,34.8944962 23.0999011,34 21.9989566,34 L21,34 L21,6 L28,6 L28,8.9951185 C28,10.102384 28.8982606,11 29.9979131,11 L32.0020869,11 C33.1055038,11 34,10.1017394 34,9.00208688 L34,5 L34,2.0048815 C34,0.897616023 33.1080589,0 32.0000796,0 L1.9999204,0 C0.895394863,0 0,0.893899798 0,2.0048815 L0,5 L0,9.00208688 C0,10.1055038 0.898260623,11 1.99791312,11 L4.00208688,11 C5.10550383,11 6,10.1061002 6,8.9951185 L6,6 L13,6 Z" id="Combined-Shape" fill="#444444"/> <polygon id="Combined-Shape" fill="#C8E7C9" points="19 4 30 4 30 9 32 9 32 3 32 2 2 2 2 3 2 9 4 9 4 4 15 4 15 36 12 36 12 38 22 38 22 36 19 36"/> </g> </g> </g> </g> </g> </g> </g> 
    </symbol>
    <symbol id="upload" viewBox="0 0 44 42">
       <!-- Generator: sketchtool 41 (35326) - http://www.bohemiancoding.com/sketch --> <title>8E05BB07-0F9F-464A-AC31-3743C3CF9929</title> <desc>Created with sketchtool.</desc>  <g id="Page-1" stroke="none" stroke-width="1" fill="none" fill-rule="evenodd"> <g id="signature" transform="translate(-500.000000, -343.000000)"> <g id="Group-2-Copy-2" transform="translate(100.000000, 111.000000)"> <g id="Group-17" transform="translate(30.000000, 80.000000)"> <g id="Group-9" transform="translate(350.000000, 128.000000)"> <g id="upload" transform="translate(20.000000, 24.000000)"> <use id="Shape" stroke="#444444" mask="url(#mask-2)" stroke-width="4" fill="#E1F5FE" xlink:href="#path-1"/> <rect id="Rectangle-151" fill="#E1F5FE" x="15" y="32" width="14" height="2"/> <path d="M21,21.4141981 L16.7071657,25.7077479 C16.3166739,26.0983047 15.683509,26.0983574 15.2929521,25.7078657 C14.9023953,25.3173739 14.9023426,24.684209 15.2928343,24.2936521 L21.2928343,18.2926521 C21.6833721,17.9020493 22.3166279,17.9020493 22.7071657,18.2926521 L28.7071657,24.2936521 C29.0976574,24.684209 29.0976047,25.3173739 28.7070479,25.7078657 C28.316491,26.0983574 27.6833261,26.0983047 27.2928343,25.7077479 L23,21.4141981 L23,41 C23,41.5522847 22.5522847,42 22,42 C21.4477153,42 21,41.5522847 21,41 L21,21.4141981 L21,21.4141981 Z" id="Combined-Shape" fill="#444444"/> </g> </g> </g> </g> </g> </g> 
    </symbol></svg>